<?xml version="1.0" encoding="UTF-8"?>
<!DOCTYPE svg PUBLIC "-//W3C//DTD SVG 1.1//EN" "http://www.w3.org/Graphics/SVG/1.1/DTD/svg11.dtd">
<!-- Creator: CorelDRAW 2018 (64 Bit) -->
<svg xmlns="http://www.w3.org/2000/svg" xml:space="preserve" width="31.8824mm" height="31.8824mm" version="1.1" style="shape-rendering:geometricPrecision; text-rendering:geometricPrecision; image-rendering:optimizeQuality; fill-rule:evenodd; clip-rule:evenodd"
viewBox="0 0 637.91 637.91"
 xmlns:xlink="http://www.w3.org/1999/xlink">
 <defs>
  <style type="text/css">
   <![CDATA[
    .fil0 {fill:#373435}
   ]]>
  </style>
 </defs>
 <g id="Camada_x0020_1">
  <metadata id="CorelCorpID_0Corel-Layer"/>
  <path class="fil0" d="M495.95 34.33l0.01 0 0 370.87c0,36.54 -7.49,63.04 -22.47,79.51 -14.97,16.47 -35.63,24.7 -62,24.7 -22.16,0 -42.37,-5.54 -60.64,-16.62 -18.27,-11.07 -36.39,-26.51 -54.35,-46.26l-87.16 97.04c7.54,8.99 15.78,17.56 24.74,25.67l0.78 0.71 0.04 0.04 0.75 0.67 0.33 0.29 0.46 0.41 0.62 0.55 0.18 0.15 0.8 0.7 0.11 0.1 0.69 0.59 0.4 0.35 0.4 0.34 0.7 0.6 0.11 0.09 0.81 0.69 0.18 0.15 0.63 0.53 0.48 0.4 0.34 0.28 0.78 0.65 0.04 0.03 0.83 0.68 0.26 0.21 0.58 0.47 0.56 0.46 0.27 0.22 0.84 0.68 0.03 0.02 0.81 0.65 0.33 0.27 0.51 0.4 0.64 0.5 0.21 0.16 0.85 0.66 0.11 0.08 0.75 0.58 0.42 0.32 0.44 0.34 0.73 0.56 0.13 0.1 0.87 0.66 0.18 0.13 0.69 0.52 0.49 0.37 0.38 0.28 0.81 0.6 0.06 0.05 0.88 0.64 0.26 0.19 0.63 0.45 0.58 0.42 0.31 0.22 0.89 0.64 0.01 0.01 0.88 0.63 0.34 0.24 0.56 0.4 0.67 0.47 0.23 0.17 0.91 0.63 0.09 0.06 0.82 0.57 0.42 0.29 0.49 0.33 0.76 0.52 0.16 0.11 0.92 0.63 0.17 0.11 0.75 0.5 0.51 0.34 0.42 0.27 0.85 0.56 0.08 0.06 0.93 0.61 0.26 0.17 0.68 0.44 0.6 0.39 0.34 0.22 0.94 0.61 0.95 0.6 0.34 0.22 0.61 0.39 0.69 0.43 0.26 0.16 0.96 0.6 0.08 0.05 0.88 0.54 0.43 0.27 0.54 0.33 0.79 0.48c3.63,2.2 7.34,4.36 11.12,6.48 33.24,18.57 74.43,27.86 123.54,27.86l-415.09 0 0 -637.91 34.33 0 461.62 0 0 34.33zm141.96 377.16l0 226.41 -222.81 0c34.13,0 65.13,-4.94 92.99,-14.82 14.69,-5.22 28.17,-11.72 40.44,-19.51l-0.01 0 1.03 -0.66 0.34 -0.22 0.17 -0.11 0.51 -0.33 0.51 -0.33 0.51 -0.33 2.02 -1.36 0.5 -0.34 0.06 -0.04 0.43 -0.3 1 -0.7 0.49 -0.35 0.17 -0.12 0.32 -0.23 0.49 -0.35 0.23 -0.16 0.26 -0.19 0.49 -0.36 0.29 -0.21 0.2 -0.15 0.83 -0.61 0.14 -0.11 0.49 -0.36 0.96 -0.73 0.45 -0.34 0.03 -0.03 0.48 -0.37 0.48 -0.37 0.02 -0.01 0.45 -0.36 0.94 -0.75 0.47 -0.38 0.47 -0.38 0.47 -0.37 0.18 -0.15 0.28 -0.23 0.47 -0.38 0.23 -0.19 0.23 -0.19 0.46 -0.38 0.29 -0.24 0.17 -0.15 2.28 -1.95 0.43 -0.37 0.02 -0.02 0.45 -0.4 0.45 -0.4 0.04 -0.03 0.41 -0.37 0.45 -0.4 0.09 -0.07 0.36 -0.33 0.44 -0.4 0.14 -0.12 0.31 -0.28 0.44 -0.41 0.19 -0.17 0.25 -0.24 0.88 -0.82 0.43 -0.41 0.28 -0.27 0.15 -0.15 0.43 -0.42 0.86 -0.84 0.38 -0.37 0.05 -0.06 0.42 -0.42 0.43 -0.42 0 -0 0.44 -0.44 0.44 -0.44 0.02 -0.01 0.42 -0.43 0.44 -0.45 0.03 -0.03 0.4 -0.42 0.44 -0.45 0.05 -0.05 0.38 -0.4 0.86 -0.91 0.42 -0.45 0.08 -0.08 0.34 -0.38 0.42 -0.46 0.1 -0.1 0.32 -0.36 0.42 -0.46 0.12 -0.12 0.31 -0.34 0.42 -0.47 0.13 -0.14 0.28 -0.33 0.41 -0.47 0.82 -0.94 0.16 -0.18 0.25 -0.29 0.41 -0.47 1.61 -1.9 0.2 -0.24 0.2 -0.24 0.4 -0.48 1.18 -1.46 0.39 -0.48c1.69,-2.11 3.34,-4.27 4.94,-6.47l0.37 -0.51 0.33 -0.45 0.04 -0.06c1.95,-2.73 3.85,-5.5 5.66,-8.35l0.07 -0.1 0.27 -0.43 0 0.01c7.52,-11.86 13.88,-24.81 19.06,-38.85 10.18,-27.54 15.27,-60.19 15.27,-97.92z"/>
 </g>
</svg>
